<svg xmlns="http://www.w3.org/2000/svg" width="149" height="130" viewBox="0 0 149 130" fill="none"><path d="M61.7146 102.667L50.8096 89.267H50.7655V99.4232C50.7655 100.405 51.2611 101.575 52.8152 101.648C52.8664 101.651 52.9732 101.683 52.9732 101.805V102.402H47.5201V101.772C47.5201 101.689 47.5874 101.651 47.6205 101.65C49.043 101.597 49.5295 100.416 49.5295 99.4232V90.0437C49.5295 88.25 48.4788 87.529 47.5926 87.4616C47.5602 87.459 47.498 87.4623 47.498 87.3191V86.7277H51.6705L61.0973 98.4282H61.1407V90.1493C61.1407 88.7209 60.6335 87.5258 58.9472 87.4798C58.9149 87.4791 58.8449 87.4182 58.8449 87.3463V86.7277H64.4976V87.3411C64.4976 87.4292 64.4173 87.4791 64.3797 87.4811C62.882 87.5394 62.3786 88.7287 62.3786 90.1493V102.667H61.7146Z" fill="black"></path><path d="M95.9799 86.7477V90.1688H95.2285C94.7861 88.3368 93.37 87.7622 91.6909 87.7622H87.5016V93.6358H89.2519C90.3318 93.6358 92.1877 93.6857 92.2681 92.21C92.2681 92.1776 92.3166 92.1109 92.3879 92.1109H93.0215V96.3067H92.3503C92.2992 96.3067 92.2616 96.2425 92.257 96.2114C92.0439 94.8109 90.3972 94.7383 89.34 94.7383H87.5016V98.7353C87.5016 100.303 87.9427 101.319 89.2901 101.319H91.6254C93.5455 101.319 95.4041 100.655 96.1989 98.5364H96.9724L96.265 102.422H83.1309V101.797C83.1309 101.725 83.1503 101.675 83.2682 101.667C84.6636 101.567 85.1611 100.107 85.1611 99.1226V90.527C85.1611 89.5559 84.6778 87.6767 83.3252 87.5089C83.2922 87.5057 83.2585 87.5024 83.2235 87.4992C83.1918 87.4992 83.1309 87.4642 83.1309 87.4059V87.3334V86.7477H95.9799Z" fill="black"></path><path d="M112.776 102.667L101.87 89.267H101.827V99.4232C101.827 100.405 102.323 101.575 103.877 101.648C103.929 101.651 104.035 101.683 104.035 101.805V102.402H98.5813V101.772C98.5813 101.689 98.6486 101.651 98.6804 101.65C100.104 101.597 100.59 100.416 100.59 99.4232V90.0437C100.59 88.25 99.54 87.529 98.6538 87.4616C98.6221 87.459 98.5586 87.4623 98.5586 87.3191V86.7277H102.732L112.16 98.4282H112.203V90.1493C112.203 88.7209 111.695 87.5258 110.008 87.4798C109.975 87.4791 109.907 87.4182 109.907 87.3463V86.7277H115.559V87.3411C115.559 87.4292 115.479 87.4791 115.441 87.4811C113.944 87.5394 113.439 88.7287 113.439 90.1493V102.667H112.776Z" fill="black"></path><path d="M34.2006 123.066H39.6538L36.9602 116.751L34.2006 123.066ZM38.02 113.749L43.1318 125.128C43.5671 126.089 44.9456 128.536 46.2801 128.67C46.2943 128.672 46.3209 128.694 46.3209 128.72V129.424H39.565V128.755C39.565 128.701 39.5702 128.672 39.611 128.674C40.6727 128.681 41.3011 127.69 41.2551 127.141C41.2175 126.68 40.788 125.648 40.6779 125.406L40.1603 124.258H33.626L32.9484 125.823C32.7709 126.22 32.5306 126.837 32.5306 127.234C32.5306 127.69 32.6498 128.554 34.2233 128.668C34.2518 128.67 34.3107 128.694 34.3107 128.742V129.424H28.8809V128.747C28.8809 128.688 28.9275 128.664 28.9502 128.659C30.3002 128.35 31.1572 126.644 31.7221 125.429L37.0917 113.749H38.02Z" fill="black"></path><path d="M88.1186 113.652V117.073H87.3685C86.9267 115.241 85.5086 114.666 83.8308 114.666H79.6415V120.539H81.3912C82.4718 120.539 84.3283 120.59 84.4074 119.115C84.41 119.082 84.456 119.016 84.5292 119.016H85.1595V123.212H84.4909C84.4378 123.212 84.4022 123.147 84.3964 123.115C84.1839 121.716 82.5378 121.643 81.4793 121.643H79.6415V125.64C79.6415 127.208 80.0814 128.223 81.4288 128.223H83.7641C85.6855 128.223 87.5447 127.56 88.3395 125.44H89.1123L88.4043 129.327H75.2695V128.703C75.2695 128.629 75.2903 128.579 75.4082 128.571C76.8035 128.471 77.3017 127.011 77.3017 126.027V117.43C77.3017 116.461 76.8178 114.581 75.4665 114.414C75.4321 114.41 75.3978 114.407 75.3635 114.405C75.3324 114.403 75.2695 114.368 75.2695 114.31V114.237V113.652H88.1186Z" fill="black"></path><path d="M26.0664 86.6862C25.1517 83.3436 22.7866 80.9778 19.0345 80.9778C14.2402 80.9778 11.0232 85.4249 11.0232 91.1962C11.0232 96.9998 14.3982 101.099 19.5074 101.099C22.7548 101.099 24.6483 99.4912 26.8554 96.7161L28.0856 97.5038C26.1616 100.627 23.4486 103.055 19.0967 103.055C12.3479 103.055 7.46094 97.8827 7.46094 91.4495C7.46094 85.3932 12.0318 79.4004 18.6245 79.4004C22.2469 79.4004 22.4905 80.0158 24.1495 80.0158C25.2476 80.0158 25.554 79.6556 25.6382 79.4866C25.6647 79.4341 25.6984 79.4004 25.7308 79.4004H26.6954L27.0109 86.6862H26.0664Z" fill="black"></path><path d="M32.5527 94.5855C32.5527 98.1841 34.1871 101.849 37.8077 101.849C41.4282 101.849 43.0613 98.1841 43.0613 94.5855C43.0613 90.987 41.4282 87.3218 37.8077 87.3218C34.1871 87.3218 32.5527 90.987 32.5527 94.5855ZM45.6655 94.5855C45.6655 99.023 42.488 102.864 37.8077 102.864C33.126 102.864 29.9473 99.023 29.9473 94.5855C29.9473 90.1475 33.126 86.3067 37.8077 86.3067C42.488 86.3067 45.6655 90.1475 45.6655 94.5855Z" fill="black"></path><path d="M71.7642 87.5035C70.4213 87.5683 69.7534 88.0535 70.1408 89.3406C70.2878 89.8375 70.7575 91.056 70.9557 91.5205L74.2556 99.377L77.6915 91.446C77.8684 91.0709 78.4332 89.636 78.5084 89.2921C78.6807 88.5082 78.1521 87.6512 76.7328 87.5048C76.7159 87.5028 76.6829 87.4834 76.6829 87.4601V87.4128V86.7495H82.1808V87.4348V87.4659C82.1808 87.4841 82.1438 87.5009 82.1263 87.5028C81.1086 87.5974 80.1583 89.1074 79.5727 90.4302L74.1448 102.424H73.1945L68.0108 90.6285C67.534 89.5227 66.8707 87.7224 65.4352 87.5093C65.4092 87.5061 65.3574 87.4724 65.3574 87.3998V86.7495H71.871V87.3998C71.871 87.4627 71.7985 87.5009 71.7642 87.5035Z" fill="black"></path><path d="M122.625 87.895H120.758C119.147 87.895 117.79 88.2707 117.348 90.6766H116.598L116.819 86.7477H130.611L130.831 90.6766H130.082C129.639 88.2707 128.283 87.895 126.672 87.895H124.805V99.762C124.805 100.761 125.318 101.642 127.016 101.67C127.045 101.67 127.102 101.674 127.102 101.752V101.819V102.422H120.286V101.744C120.286 101.683 120.321 101.67 120.34 101.67C122.105 101.653 122.625 100.767 122.625 99.762V87.895Z" fill="black"></path><path d="M134.143 94.5855C134.143 98.1841 135.776 101.849 139.397 101.849C143.017 101.849 144.651 98.1841 144.651 94.5855C144.651 90.987 143.017 87.3218 139.397 87.3218C135.776 87.3218 134.143 90.987 134.143 94.5855ZM147.257 94.5855C147.257 99.023 144.078 102.864 139.397 102.864C134.717 102.864 131.537 99.023 131.537 94.5855C131.537 90.1475 134.717 86.3067 139.397 86.3067C144.078 86.3067 147.257 90.1475 147.257 94.5855Z" fill="black"></path><path d="M104.549 129.63L93.6449 116.229H93.5989V126.386C93.5989 127.369 94.0951 128.537 95.6505 128.611C95.7016 128.613 95.8072 128.646 95.8072 128.767V129.365H90.3547V128.734C90.3547 128.652 90.4201 128.613 90.4545 128.613C91.8777 128.56 92.3622 127.377 92.3622 126.386V117.006C92.3622 115.213 91.3147 114.491 90.4266 114.425C90.3949 114.421 90.332 114.425 90.332 114.281V113.691H94.5051L103.933 125.39H103.975V117.111C103.975 115.683 103.467 114.488 101.783 114.442C101.749 114.441 101.68 114.379 101.68 114.309V113.691H107.332V114.303C107.332 114.391 107.253 114.441 107.214 114.443C105.715 114.501 105.213 115.691 105.213 117.111V129.63H104.549Z" fill="black"></path><path d="M15.9573 114.754V126.566C15.9573 127.78 16.3544 128.267 18.5187 128.267C22.4476 128.267 25.2299 125.97 25.2299 121.598C25.2299 118 23.155 114.754 18.5187 114.754H15.9573ZM13.6168 116.834C13.6168 115.846 13.1167 114.501 11.7071 114.448C11.6177 114.446 11.5859 114.404 11.5859 114.312V113.694H19.2481C23.6628 113.694 27.8347 116.564 27.8347 121.489C27.8347 127.206 23.3765 129.37 18.761 129.37H11.5859V128.708C11.5859 128.629 11.6397 128.618 11.6656 128.618C13.107 128.57 13.6168 127.227 13.6168 126.231V116.834Z" fill="black"></path><path d="M62.0538 118.361C63.0637 118.582 63.6934 118.582 64.452 118.582C67.8257 118.582 70.884 117.384 70.884 113.568C70.884 109.909 68.2999 108.552 64.9884 108.552H62.0538V118.361ZM65.3025 107.136C69.6227 107.136 74.0012 108.396 74.0012 113.6C74.0012 118.141 69.8125 120.159 65.2073 120.159C64.2628 120.159 62.5591 120.064 62.0538 120.032V125.065C62.0538 126.445 62.7379 128.12 64.9158 128.283C65.0311 128.291 65.2708 128.314 65.2708 128.494V129.368H56.2891V128.421C56.2891 128.314 56.4096 128.294 56.4692 128.292C58.4773 128.194 59.1906 126.474 59.1906 125.065V111.278C59.1906 109.897 58.5045 108.218 56.5858 108.061C56.4899 108.052 56.2891 107.982 56.2891 107.779V107.136H65.3025Z" fill="black"></path><path d="M120.201 120.536V116.672C120.201 115.685 119.7 114.511 118.252 114.445C118.21 114.444 118.125 114.439 118.125 114.318V113.692H124.573V114.326C124.573 114.403 124.503 114.444 124.47 114.445C123.046 114.498 122.54 115.68 122.54 116.672V126.387C122.54 127.371 123.039 128.541 124.436 128.613C124.479 128.616 124.573 128.663 124.573 128.767V129.367H118.125V128.717C118.125 128.638 118.207 128.616 118.248 128.613C119.699 128.552 120.201 127.377 120.201 126.387V121.729H112.76V126.387C112.76 127.374 113.26 128.548 114.705 128.613C114.747 128.616 114.835 128.653 114.835 128.736V129.367H108.389V128.727C108.389 128.633 108.472 128.616 108.513 128.613C109.92 128.549 110.42 127.375 110.42 126.387V116.672C110.42 115.685 109.919 114.509 108.51 114.445C108.47 114.444 108.389 114.435 108.389 114.302V113.692H114.835V114.31C114.835 114.37 114.754 114.444 114.714 114.445C113.262 114.507 112.76 115.684 112.76 116.672V120.536H120.201Z" fill="black"></path><path d="M131.173 123.012H136.626L133.933 116.698L131.173 123.012ZM134.993 113.695L140.105 125.074C140.541 126.035 141.918 128.48 143.253 128.616C143.267 128.617 143.294 128.639 143.294 128.665V129.37H136.539V128.701C136.539 128.646 136.544 128.619 136.584 128.619C137.647 128.627 138.275 127.635 138.23 127.088C138.191 126.625 137.761 125.595 137.651 125.352L137.134 124.204H130.601L129.921 125.767C129.744 126.165 129.505 126.783 129.505 127.18C129.505 127.636 129.623 128.499 131.198 128.614C131.226 128.616 131.284 128.64 131.284 128.688V129.37H125.854V128.692C125.854 128.634 125.901 128.61 125.925 128.604C127.274 128.296 128.13 126.589 128.694 125.374L134.065 113.695H134.993Z" fill="black"></path><path d="M148.035 85.7286C147.96 85.5317 137.543 72.5239 129.82 60.7139C124.227 52.1571 121.57 45.4038 120.306 43.2538C119.848 42.4764 119.177 41.8092 118.445 41.2203C117.717 40.6276 116.881 40.1579 116.016 39.8314C115.088 39.4706 114.094 39.3767 113.181 39.4097C112.26 39.4408 111.382 39.582 110.527 39.7498C108.833 40.0886 98.0312 42.4874 92.6001 42.7154C89.446 42.8476 86.7595 42.9039 84.4747 42.8482C77.4824 42.6753 71.8122 41.3078 70.869 41.026C70.8567 41.0221 70.8451 41.0195 70.8308 41.0195C70.7686 41.0195 70.7168 41.0707 70.7168 41.1335C70.7168 41.1795 70.7447 41.2203 70.7855 41.2372C71.0491 41.3466 78.3019 45.4206 92.4627 45.0786C106.856 44.7301 112.511 40.6146 117.189 46.0076C118.916 47.9989 122.668 55.2225 127.735 62.3036C137.165 75.4921 147.629 85.5971 147.828 85.8459C147.868 85.8977 147.933 85.9236 147.99 85.8912C148.047 85.8588 148.059 85.7902 148.035 85.7286Z" fill="#009CBE"></path><path d="M54.0982 56.7298C52.0816 56.6372 51.0115 56.8465 50.0352 57.158C48.6813 57.5875 47.4026 58.245 46.243 59.0639C43.9349 60.7248 42.0492 62.9371 40.5132 65.2652C38.9423 67.4827 37.2865 69.6942 35.2421 71.3073C34.2205 72.1034 33.1154 72.7331 31.9215 72.9967C30.7302 73.274 29.4637 73.1898 28.1668 72.9423C26.8667 72.7085 25.5335 72.3437 24.1634 72.0341C22.794 71.7251 21.3831 71.4582 19.9508 71.352C19.2324 71.2988 18.5205 71.2781 17.7943 71.293C17.0577 71.3105 16.3205 71.3908 15.6008 71.5301C14.1537 71.8035 12.7751 72.3269 11.5061 73.009C8.94989 74.3681 6.71045 76.2422 4.89078 78.3696C3.12164 80.4872 0.421615 85.2382 0.369143 85.3496C0.339992 85.4131 0.330925 85.483 0.384044 85.5284C0.435868 85.5737 0.516196 85.5673 0.56219 85.5141C0.603649 85.4636 3.88605 81.422 5.85989 79.5946C8.51198 77.1387 14.7775 72.185 24.2276 74.9984C25.5316 75.3864 26.8848 75.6948 28.3074 75.963C29.7203 76.2195 31.2776 76.3258 32.7915 75.9578C34.3034 75.5996 35.6897 74.8507 36.7852 73.8777C42.2111 69.0523 42.9347 62.4531 50.1732 58.3046C51.8141 57.3647 53.5806 57.0641 54.0619 56.9805C54.1306 56.9689 54.1954 56.9417 54.2058 56.873C54.2155 56.803 54.1669 56.7324 54.0982 56.7298Z" fill="#009CBE"></path><path d="M108.489 22.2987H100.365C100.177 22.2903 99.9759 22.2132 99.9759 21.5382C99.9759 20.8645 99.9869 11.9533 99.9869 11.9533V11.9495C99.9422 11.689 99.8644 11.4047 99.7122 11.1177C99.5561 10.8301 99.3054 10.556 99.0171 10.3798C98.7308 10.2023 98.4315 10.1078 98.1452 10.0579C97.8919 10.0151 97.7073 9.9944 97.4857 9.9633L96.2186 9.80589C96.2186 9.80589 92.9304 9.37575 92.8345 9.35761C92.8326 9.25979 92.8345 5.81868 92.8345 4.21797C92.8345 4.15578 92.828 4.07351 92.8138 3.97958C92.6233 1.95521 90.919 0.370697 88.8454 0.370697C86.6973 0.370697 84.9482 2.06987 84.8608 4.19789C84.8582 4.25943 84.8536 4.32227 84.8536 4.38446C84.8536 4.96748 84.8627 6.97695 84.8627 6.97695C84.8647 7.23024 84.8672 7.47899 84.8569 7.68888C84.8504 7.9046 84.8174 8.04128 84.8005 8.06525C84.7927 8.09181 84.7344 8.1987 84.5589 8.29781C84.3432 8.41895 81.9126 9.78645 81.3478 10.0961C79.9634 10.856 79.7645 11.2239 79.7645 12.0363C79.7645 12.3122 79.7665 13.3973 79.7645 13.4089C79.7619 13.4122 55.2991 25.4684 54.834 25.7417C54.0294 26.2166 53.9277 26.887 53.9277 27.2032C53.9277 27.7966 54.0592 33.2873 54.0592 33.345C54.0592 33.4058 54.1078 33.4551 54.1687 33.4551C54.2296 33.4551 54.2775 33.4058 54.2775 33.345C54.2775 33.2873 54.5373 28.3161 54.6196 27.7324C54.7291 26.9369 55.0471 26.6759 55.4598 26.4718C56.2715 26.0702 80.4855 15.1016 81.1327 14.7985C81.8939 14.4402 81.7896 13.8572 81.7896 13.683C81.7896 13.3079 81.8265 12.6549 81.8271 12.4204C81.8271 12.2183 81.8517 12.0855 81.8913 11.9844C81.9295 11.8847 81.9871 11.8024 82.0973 11.6975C82.208 11.5951 82.3648 11.4843 82.5488 11.3852C83.3903 10.9292 85.1406 10.0242 85.6077 9.73398C85.861 9.57656 86.17 9.3019 86.3922 8.87241C86.604 8.44162 86.6662 8.10476 86.6662 7.77827C86.6662 7.45114 86.6649 4.69734 86.6662 4.50754C86.6662 4.43499 86.6759 4.34235 86.6902 4.24972C86.8443 3.07914 87.7603 2.17806 88.8739 2.17806C88.9989 2.17806 89.2697 2.21822 89.2839 2.22081C90.2556 2.42098 91.0019 3.31883 91.0725 4.42138C91.0732 4.43952 91.079 4.49134 91.079 4.64682V9.30643C91.079 10.4893 91.4618 10.7258 92.1174 10.9033C92.4536 10.9939 93.2996 11.1021 93.5102 11.1248L96.0463 11.3794L97.2992 11.5089C97.4967 11.5316 97.7351 11.5562 97.8971 11.5809C98.0286 11.6016 98.1381 11.6411 98.2119 11.6851C98.2858 11.7286 98.3305 11.7733 98.3816 11.8549C98.4309 11.9378 98.4756 12.0609 98.5047 12.2131C98.5047 12.2144 98.5066 12.217 98.5066 12.217V21.783V21.7902C98.5099 22.8934 99.2497 23.2497 99.5321 23.365C99.8554 23.4971 99.9953 23.4842 100.337 23.4842H107.667C108.231 23.4842 108.172 23.764 108.192 24.0717C108.211 24.3775 108.59 30.0574 108.59 30.1157C108.59 30.1772 108.641 30.2271 108.702 30.2271C108.763 30.2271 108.813 30.1772 108.813 30.1157C108.813 30.058 109.156 23.4466 109.168 23.1985C109.191 22.6634 109.006 22.2987 108.489 22.2987Z" fill="#009CBE"></path><path d="M113.559 33.0522C113.278 32.0131 112.859 30.781 109.848 30.781C106.837 30.781 81.9353 30.7882 81.8395 30.7882C81.7261 30.7882 81.6348 30.8801 81.6348 30.9935C81.6348 31.1075 81.7261 31.1995 81.8395 31.1995C81.9425 31.1995 108.715 32.5955 109.924 32.6467C111.066 32.6927 112.153 32.773 112.278 33.9475C112.401 35.0882 112.875 38.4367 112.875 38.5274C112.875 38.6246 112.954 38.7036 113.052 38.7036C113.15 38.7036 113.228 38.6246 113.228 38.5274C113.228 38.4471 113.64 34.7605 113.652 34.0038C113.657 33.6611 113.635 33.3321 113.559 33.0522Z" fill="#009CBE"></path><path d="M68.9703 37.171L60.5871 34.5429C60.5081 34.5183 60.4233 34.5027 60.3384 34.5027H44.5509C44.4667 34.5027 44.3766 34.515 44.2905 34.541L44.2846 34.5429C41.4525 35.4071 38.6268 36.2861 35.8011 37.1697L35.7959 37.171C35.4318 37.2857 35.1617 37.6264 35.1617 38.0274V49.4675H32.1682V38.0099C32.1682 37.8862 32.1352 37.7592 32.0646 37.6446L30.4775 35.0644H30.4677C30.344 34.8597 30.1179 34.7327 29.8614 34.7359H25.5309C25.308 34.7392 25.0917 34.8558 24.9725 35.0644L23.4443 37.6446C23.3925 37.7346 23.364 37.916 23.3653 38.0274L23.4819 45.8437L23.6199 53.6594C23.7151 58.7984 23.8757 69.1373 23.8757 69.2027C23.8757 69.2733 23.9321 69.3303 24.0034 69.3303C24.0727 69.3303 24.1303 69.2733 24.1303 69.2027C24.1303 69.1334 24.2813 58.7984 24.3778 53.6594L24.5151 45.8437L24.6298 38.2088L25.9195 36.2589H29.4468L30.6692 38.2088V49.439C30.6692 50.6517 31.4945 50.997 31.7173 51.0631C32.1851 51.1984 32.3425 51.2308 32.7078 51.2308H34.7672C35.093 51.214 35.2874 51.2321 35.7778 51.0941C36.0148 51.0287 36.9619 50.6705 36.9619 49.439V38.6927C39.5408 37.9024 44.6902 36.2589 44.6902 36.2589H60.2036L67.9299 38.6927L68.0582 49.8335C68.1023 53.7683 68.1664 57.703 68.2389 61.6371L68.3465 67.5379C68.3549 68.0308 68.373 68.5258 68.3653 68.9986C68.3555 69.4638 68.3238 69.9593 68.1528 70.2385C68.0148 70.5022 67.5821 70.6019 67.1157 70.6428C66.6492 70.6836 66.1569 70.6829 65.6626 70.6952C61.8024 70.7788 54.0256 70.8604 53.9563 70.8604C53.885 70.8604 53.8287 70.9168 53.8287 70.9874C53.8287 71.0574 53.885 71.1131 53.9563 71.1131C54.0178 71.1131 61.8018 71.2212 65.6626 71.3055C66.1543 71.3126 66.646 71.3346 67.1617 71.3106C67.4208 71.2951 67.6864 71.2744 67.9708 71.1901C68.2487 71.1144 68.5732 70.9278 68.7578 70.6428C68.9437 70.3642 69.0176 70.0753 69.0668 69.8097C69.1148 69.5415 69.1374 69.283 69.151 69.0291C69.1795 68.5193 69.1802 68.0295 69.1912 67.5379L69.2838 61.6358C69.3402 57.7004 69.392 53.7657 69.4225 49.8309L69.5164 38.0274C69.5177 37.6931 69.3052 37.2792 68.9703 37.171Z" fill="#009CBE"></path><path d="M98.2687 3.2726C98.2713 2.9487 98.0912 2.54706 97.8055 2.44277C97.8055 2.44277 97.6785 2.40066 97.5982 2.40066C97.5179 2.40066 97.3864 2.44277 97.3864 2.44277C97.1014 2.54706 96.9213 2.9487 96.9239 3.2726C96.9239 3.2726 97.0716 7.17817 97.1214 10.9885H98.0724C98.121 7.17817 98.2687 3.2726 98.2687 3.2726Z" fill="#009CBE"></path><path d="M99.6025 6.17967C99.8875 6.18162 100.24 6.00153 100.33 5.7165C100.33 5.7165 100.367 5.58888 100.367 5.50855C100.367 5.42693 100.33 5.29672 100.33 5.29672C100.24 5.01104 99.8875 4.83031 99.6025 4.8329C99.6025 4.8329 97.5587 4.99485 97.0566 5.00457V5.95424C97.6371 5.95812 99.6025 6.17967 99.6025 6.17967Z" fill="#009CBE"></path><path d="M95.5893 6.17967C95.3055 6.18162 94.9538 6.00153 94.8624 5.7165C94.8624 5.7165 94.8262 5.58888 94.8262 5.50855C94.8262 5.42693 94.8624 5.29672 94.8624 5.29672C94.9538 5.01104 95.3055 4.83031 95.5893 4.8329C95.5893 4.8329 97.6344 4.99485 98.1345 5.00457V5.95424C97.5547 5.95812 95.5893 6.17967 95.5893 6.17967Z" fill="#009CBE"></path></svg>